<svg version="1.2" xmlns="http://www.w3.org/2000/svg" viewBox="0 0 1280 976" width="1280" height="976">
	<title>VIRGULE 11-ai</title>
	<style>
		.s0 { fill: #909190 }
		.s1 { fill: #05499b;stroke: #002733;stroke-width: 16 }
		.s2 { fill: #012860 }
		.s3 { fill: #cecccc;stroke: #002733;stroke-width: 16 }
		.s4 { fill: #01232d;stroke: #002733;stroke-width: 16 }
		.s5 { fill: #011116 }
		.s6 { fill: #cecccc }
		.s7 { fill: #afacac }
		.s8 { fill: #000000 }
	</style>
	<g id="Calque 1">
		<path id="&lt;Path&gt;" class="s0" d="m524.1 890.5c-7.9 0.1-24.9-3.7-27 6.1 5-12.9 32.9-0.7 42.4 0.4 19.1 2.2 40.7 0.6 59.9-0.1 48.1-1.7 97.5-12.8 143.8-24.3 39.4-9.7 76.2-16.3 117.8-14.1 10.2 0.5 42.2-0.8 42.3 15.4 0.1 15.2-33.2 16.8-43.8 18.9-28 5.5-56.3 7.4-84.6 10.8-46.9 5.8-96.1 8.8-143.2 8.7-42.3-0.1-90.1 6.4-131.9 0-17.3-2.6-10.1-13.8 1.3-20.5"/>
		<path id="&lt;Path&gt;" class="s1" d="m642.3 757.4c0 0-236.5-21.5-261.4-218.4-24.9-196.9 220.6-279.6 340.6-254.7 120 24.9 245.6 200.3 189 363.3-56.6 162.9-253.5 267.1-303.3 261.4-49.8-5.7-97.3-3.4-127.9-34 0 0-7.9-14.7 23.8-11.3 0 0 132.4 0 139.2-106.3z"/>
		<path id="&lt;Path&gt;" class="s2" d="m864.2 503.9c-0.3-3.9-4.6-56.7 0.9-53.9 22.1 11.2 30.5 38.9 39.8 61.1 17.3 41.4 7.6 85.2-1.4 127.7-4.8 22.7-18.8 36.9-28.5 56.9-9.2 19-18.1 36.3-32.7 52.7-14.2 16-25.2 35.4-41.2 50.2-16 14.9-37.6 27.5-56.7 38.5-36.4 20.9-78.2 52.7-121.2 52.3 18-15.6 41-25.8 62.3-37.4 26.5-14.3 50.6-31.7 71.5-53.6 42.3-44.7 70.3-98.9 93.7-156 11.1-27 12.8-52.3 12.8-82.3 0-18.6 2.2-38.2 0.7-56.2z"/>
		<path id="&lt;Path&gt;" class="s3" d="m599.3 399.8c0 28.7-23.8 52-53.2 52-29.4 0-53.2-23.3-53.2-52 0-28.8 23.8-52.1 53.2-52.1 29.4 0 53.2 23.3 53.2 52.1z"/>
		<path id="&lt;Path&gt;" class="s3" d="m712.5 395.2c0 15-13.7 27.2-30.6 27.2-16.9 0-30.6-12.2-30.6-27.2 0-15 13.7-27.1 30.6-27.1 16.9 0 30.6 12.1 30.6 27.1z"/>
		<path id="&lt;Path&gt;" class="s4" d="m454.4 540.1c0 0 169.8 80.3 341.8-79.2 0 0 49.8-39.7 44.1 16.9 0 0-46.4 197-116.5 219.6 0 0-104.1 45.2-172-13.6 0 0-130.2-89.4-129-133.5 0 0 11.3-22.6 31.6-10.2z"/>
		<path id="&lt;Path&gt;" class="s5" d="m581.2 694c-11.4 1.1-35.9-15.8-40.8-24.9-9.4-17.6 4.7-40.1 12.2-56.6 8.3-18.2 14.4-31.9 34.2-34 20.7-2.3 42.6-5.8 62.3-13.8 20.1-8.2 37.4-18.8 55.4-30.3 6.5-4.2 16.7-13 24.9-14.8 11.4-2.5 16.6 5.5 24.6 10.5 10.2 6.4 16.4 10.5 24.4 19.9 3.6 4.2 13.6 11.2 15.3 16.3 3.1 9-8.4 21-12.5 29-4.4 8.4-8 18-11.9 26.8-16.3 37.2-49.6 64.8-87.4 75.5-20 5.7-40.8 7.5-61 6.5-13.8-0.7-41.5 1.4-46.6-14.5-4.1 0.1-5.9-0.8-8.8 1.6 4.6-0.8 0.7-2 2.1-4"/>
		<path id="&lt;Path&gt;" class="s6" d="m847.2 284.8c-7.7-5.3-17-9.3-25.5-12.1-9.1-2.9-22 0.1-26.8-11-4.8-10.9 4.1-27.7 12.9-33.8 9.4-6.5 21.5-4.9 29.7 2.1 1.9 1.6 12.6 13.1 9.6 3.5-1.5-4.9-9.9-7.1-12.8-10.7 4.4-0.8 9.8-0.6 13.1-3.9 3.3-3.5 3.3-10.6 1.5-14.6-2.4-5.6-8.5-9-12.7-13-4.8-4.4-9.9-9.7-13.4-15.2-12.7-19.6-9-41.4 9.2-55.8 10.3-8.1 24.5-5.8 35.7-1.1 15.3 6.4 24.9 20 30.1 35.4 1.9 5.7 3.9 11.8 6.5 17.2 3.3 6.8 10.1 10.8 14.3 17.3 7.6 11.5 14 23.6 12.5 37.8-0.4 3.5-4.2 10.4-1 12.6 6.1 4.1 6.2-5.8 6-8.9-1-9.8-1.2-19.7-2.8-29.3-1.7-10.2-8.7-17.7-16.8-23.9-3.5-2.7-7.7-5.4-10-9.1-2.1-3.8-1.5-9.1-2.6-13.2-2.4-8.4-8.1-15.1-13.5-21.7-8.4-10.2-1.9-32 2.4-43.3 3.6-9.4 8.2-17.8 16.9-23.3 10-6.2 22.5-2.4 29.4 6.4 9.3 12-2.8 36.9-7.3 49-3 7.7-5 15.1-7.5 23-1.1 3.4-5.5 10.4-4.1 14.1 2.9 8 8.4-3.3 9.8-6.4 3.3-7.1 7.6-13.8 10.8-20.9 6-13.3 10.7-34.9 29.4-27.9 7.5 2.8 14.8 9.9 17.3 17.6 3 9.3-2.7 18-7.6 25.5-6 9.2-12.1 18.2-18.4 27.2-2.2 3.2-8.1 10.2-2.5 12.3 5.6 2.2 15.4-14.7 18.6-18.8 6.2-8 13.6-20 25.5-12.4 12.5 8 7.5 27.9 1.6 38.3-4.3 7.6-11.1 12.2-17.9 17.5-5.2 4-15.6 9.6-18.3 15.7-2.9 6.3 5.5 5.5 9.4 2.9 4.5-3 6.7-7.9 12.1-9.8 12.5-4.4 24.4 3.1 25.7 16 2 19.4-24.6 24.5-38.4 28.8-6.1 2-8.9 2.4-5.7 8.6 2.9 5.5 5.8 10.1 2.8 16.5-6.6 14.2-28.4 21.1-42.3 23.6-9.9 1.8-7.9-1.2-9.9-9.3-1.8-7.4-5.9-13.9-12.5-17.4-6.2-3.4-11.6-4.2-18.3-2.6-0.2 0.8-0.2 1.7 0 2.5 13.9 1.1 23.8 8.6 28.6 21.7 1.9 5.1 1.3 9.5 2.3 14.6 0.9 4.8 5 9 0.4 13.5-4.3 4.2-17.7 4.1-22.9 2.6-8.6-2.4-14.8-10.1-18.5-17.8-6.6-14.1-15.8-30.2-30.4-37.3-3.2-1.6-6.2-1.8-9.4-3-3.4-1.3-6-3.7-9.9-4.8 3 1.1 2.3 4.4 5.1 4.8"/>
		<path id="&lt;Path&gt;" class="s7" d="m1006.8 240.7c-7.1-2.6 3.3-10.4-2.6-11.1-1.2-5 5.4-2.7 7.3-1 3.2 2.8 3.5 6.5 2.5 10.4-1.6 6.6-5.1 13.4-10.9 17.8-6.1 4.8-15.2 6.6-22.6 8.5-1.6 0.4-10.2 1.3-10.9 2.6-1 1.9 3.9 8.2 4.5 10.2 3.1 9.2-0.5 16.3-8.3 21.8-8 5.6-19.3 11.6-28.8 14.3-12.8 3.6-14-5.6-17.7-15.3-1.2-3-6.8-10.4-6.5-13.1 0.6-4.9 7.8-1.3 11.2-0.1 6.8 2.4 12.2 7.3 20 6.4 6.3-0.7 13-4.9 15.5-11.4 4.2-11-7.9-19.7-9.9-29.5-1.4-6.9 1.5-6.5 6.8-4.1 5 2.2 9 2.7 14.7 2.5 10.9-0.4 36.7-4 34.1-20.3-0.7-0.3-1.3-0.2-2.1-0.2"/>
		<path id="&lt;Path&gt;" class="s7" d="m1003.1 180.3c-0.3-5.8 3.6-10.6 2.7-16.2 10.9-2.2 5.3 17.1 3.7 22.1-3.1 9.7-9 14.5-17.4 20-7.8 5.2-16.5 10.4-23.2 17-5.4 5.3-6.7 6.4-10.8 0.1-2.4-3.7-6.2-7.6-5.3-12.5 4.3-0.6 8.7 2.6 13.6 2.1 4.2-0.5 7.8-1.5 11.5-3.6 3.7-2 8.3-4.9 11.1-8.3 3.3-4 1.9-6.9 2.1-11.7 12.9 2 16.1-17.7 14.1-26.3"/>
		<path id="&lt;Path&gt;" class="s7" d="m980.6 127.8c0.6-4.3-3.8-5.8-4.4-9.4-0.7-5.3 4.2-3.3 6.6-1.5 3.7 2.9 5.9 8.5 5.6 13-0.4 8.6-9.4 16.7-13.2 24-4.7 9-9.9 18.8-18.5 24.9-2.2 1.5-2.5 2.2-4.9 1.9-2.8-0.3-6.2-2.7-5.5-5.2 0.7-2.4 8.3-4.7 10.6-6.7 3.9-3.4 7.9-7.7 10.7-12.1 3.8-6 0.9-6.8-0.1-12 10.1 1 17.1-26.3 8.9-26.9"/>
		<path id="&lt;Path&gt;" class="s7" d="m927 70.6c5-5 11.3 4.4 12.6 8.3 2.2 6.7-0.1 12.6-2.1 19-3 9.9-6.5 19.6-10.7 29.4-2.3 5.2-8.2 24.3-14.6 19.5-7.3-5.4 7.5-24.1 10.5-30 3-5.9 6-11.3 9.6-16.9 3.4-5.5 8.7-13.2 3.2-18.7-2.6-2.7-14.3-4.9-8.5-10.6z"/>
		<path id="&lt;Path&gt;" class="s7" d="m871.4 129.4c0.5-5.2-9.9-2.4-13.1-4.3 5.9-4.4 20 2.7 25.1 6.4 7.1 5.1 10.2 14 12.1 22 2.2 9 5.7 17.4 10.5 24.7 1.9 2.9 5 5.5 7.2 8.4 2.3 3 7.5 7.3 8.1 10.9-9.8-5.6-17.9-17.1-30.5-12.3-8.4 3.1-15.5 12.3-25.6 8.7-0.6-4.6 10.4-11.7 12.9-15.7 4.4-6.8 5.3-17.2 4.7-25-1.1-15-11.9-25-25.6-28.5"/>
		<path id="&lt;Path&gt;" class="s7" d="m911.3 301.6c-2.7-0.1-2.9-1.6-4.8-3-4.8-3.6-9.9-5-14.7-8.1-1.8-1-4.5-3.9-5.8-5.7 0.5-1 1.2-1.8 2.2-2.2 5.7-2.3 19.3 10 22.7 13.7 7 7.8 10.5 18.1 13.5 28.4 1.2 4.1 3.4 11.3 0.5 15.2-3.5 4.8-12.8 3.5-17.3 1.2-5.6-2.9-12.4-7.2-16.3-12.3-2.9-3.7-9.9-9.9-7.8-15 6.3-1.7 14.3 14.6 17.3 0.2 2.6-12.6-11.7-21.3-16.8-30.3"/>
		<path id="&lt;Path&gt;" class="s6" d="m417.3 293.7c-2.2 0.1-4.4-0.2-6.6-0.4 7.5 2.3 20.7-6.3 18.7 8.8-1 7.3-4.2 5.1-10.5 5.2-4.3 0.1-15-0.3-15.7 5.1 10.5-2.5 25.4-5.4 33.1 3.9 4.9 5.8 4.2 13.2-4.3 15.3-4.2 1.1-9.6-0.8-14.2-0.6-10.4 0.2-16.8 1.9-24.7 8.5-7.9 6.6-20.9 16.5-22.1 28.1-2.3 1.7-3.7 1.3-6.3 1.3-4.3-0.1-13.2-4.3-16.8-1.2-3.3 2.8-1.2 8.9-5.6 11.6-6.6 4-6.5-5.3-7.5-9.9-1.2-5.8-3.7-13.1-3-19 1.7-15 17.4-23.3 28.9-29.9 17.2-10 36.9-19.9 56.6-23.2-0.7-9.4-34.3 6.7-38.3 9-13.3 7.6-27.3 18.7-35.6 31.5-3.1 4.8-5.4 10.9-7.4 16.3-1.2 3.1-1.1 12.3-3.6 14.3-3.1 2.5-10.9-1.3-12.6-4.4-1.7-3-1-10.5-0.2-13.5-10.4-0.6-18 0-26.3-7-4.4-3.6-6.9-6.4-9.2-11.5-1.5-3.4-4.6-8.8-2.3-12.6 3.4-5.9 15-2.7 20.1-1.4 2.8 0.6 13.4 3.6 10.3-2.6-1.5-3.2-15.2-7.1-18.7-9.1-14.6-8.2-24.9-22.8-23.1-39.9 1.2-12.4 10.5-18.3 22.5-12.2 5.4 2.7 10.5 7.6 15.2 11.3 3.1 2.4 8.2 7.8 12 7.6 2.9-6.1-6-11.4-9.7-15.2-9.2-9.4-20.1-21.6-26-33.5-7.2-14.3-3.9-31 12.2-36.4 18.5-6.1 38.5 15.9 46.1 30.1 1.6 3.1 2.3 10.6 4.7 12.7 3.4 3.1 7.8-0.6 11.7-1.8 4-1.3 25.4-9 23.6-0.1-3.4-1.9-9.8-1-13.6-0.3-8 1.5-21.3 5.4-24.2 13.6-3.1 8.6-4.2 20.1-3.7 29.4 0.2 2.5-0.8 13.6 3.7 11.6 3.6-1.6 1.2-12.8 0.9-15.8-0.5-5.8 0.2-10.1 1.3-15.8 0.8-3.9 0.1-5.1 2.6-8.2 1.6-1.9 5.3-4.2 7.4-5.4 4.8-2.6 12.2-5.1 17.6-4.6 4.2 0.5 8.7 5 11.5 0.3 1.2-1.9 0-6.4 0.3-8.6 0.4-3.4 1.8-6.8 2.9-10 1.8-5.7 4.5-10.4 8.5-14.7 5-5.3 12.3-8.5 18.4-12.2 6-3.7 12.3-6.4 19-8.8 13.2-4.7 26-0.8 35 9.3 9.7 10.8 12.9 22.3 4.5 35.3-7.7 12-20.4 12.8-33.2 16-9.4 2.3-28.4 8.5-33 18-3.9 8.2 9.4 38 17.6 31"/>
		<path id="&lt;Path&gt;" class="s6" d="m372.7 229.6c-2.6 0.2-5.3 0.9-7.8 0 0.2-4-5-4.7-7.8-6.2-1.1 3 3.6 10.2-2.7 10.9-4.5 0.4-4.2-6.2-4.9-9.3-2-9-6.1-17.7-7.4-26.8-1.9-13.6 5.3-32.8 11.1-45.1 4.7-10.1 12.2-20.3 24.2-20.6 16.1-0.3 21 13.2 21.6 27.2 0.4 12.4-2.2 26.6-7 37.8-1.7 4.1-3.2 7.9-4.6 12.2-0.8 2.7-1.7 9.5-3.8 10.9-2.6 1.8-10.7 0.7-14 1.8-4.8 1.7-9.3 2.7-14.1 3.7-0.7 1.4-1.9 2.3-3.3 3"/>
		<path id="&lt;Path&gt;" class="s6" d="m375.9 364c1.7-0.8 1.7-3.3 3-5.4 1.7-2.9 4.5-4.8 6.9-6.9 5.6-4.6 10.8-8 17.4-11.2 6.1-3 16.5-1.5 6.3 3.5-5.9 2.8-13.5 7.4-15.7 14.3 5.9 2.2 14.1-1.6 19.2-4.8 5.3-3.3 7.5-7.2 11.5-11.2 3.6-3.4 9.6-3.6 10.2 2.4 0.8 8.1-8.5 15.8-14.7 18.8-12.4 6.1-21.8 2.4-34.2 2.6-10.6 0.2-7.8 13.6-17.7 12.3-4.2-0.6-7.9-2.9-10 2.9-1.5 4.2 1.7 8.5-4.8 9-5.4 0.4-5.8-3.2-5.4-7.4 0.5-4.9 3-6.5 7.6-7.9 3.6-1 8.3 0.2 11.4-0.4 5.3-1.2 3.5-2.9 2.5-6.2-1.6-5.3-2.6-3.9 2.8-3.3 3.4 0.3 6.5 0.7 5.7-4.5 5.7 1.1 12.1 1.4 17.4-0.8"/>
		<path id="&lt;Path&gt;" class="s7" d="m454.3 211.9c2.1-2.4 3.6-4.8 4-8.1 0.3-3.6-2.2-7.3-0.8-10.8 2.3-5.8 10.1-4.9 14.3-2.1 11.1 7.7 12.5 20.9 4.3 31.4-11.2 14.5-34.3 17.4-50.4 24-9.8 4.1-14.2 7.4-15.7 18-0.8 4.9-0.8 9.6 1.3 14.2 1.7 3.8 8.7 9.6 8.6 13-6.5-1.6-13.2 0.1-19.2 2.3-6.6 2.4-15.2 10.4-22.1 10.3-1.4-9.9 8.9-14.5 12-22.5 2.2-5.6-1.3-13.7 0-20.1 1.9-10.1 14-13.9 20-21.4 6.4-7.8 0-9.4-1.6-16.7 8.6 2.3 16.8 3.9 26.2 0.5 6.9-2.5 14.3-6.4 19.1-12z"/>
		<path id="&lt;Path&gt;" class="s7" d="m387.4 141.5q-2.8 0-5.5 0.7c0.9-0.9 0.8-2.4 1.2-3.3-1-0.3-1.8-1-1.9-1 19.3 3.1 20 25.3 14.7 40.8-2.8 8.4-6.3 17.2-8.5 25.8-1.1 4.2-2 8.8-2.6 13.1-0.8 5.5 0 8.5-5.8 7.9-2.7-0.4-12-3.3-11.7-4.9 0.6-3.2 8.8-5.7 10.6-9.2 4.7-9 8.3-25.1-4.6-28.1 2.6-3.3 7.7-3.3 10.8-6.1 3.6-3.3 4.5-10.2 5.3-14.7 1.6-9.7-1.2-20.2-10.9-24.2"/>
		<path id="&lt;Path&gt;" class="s7" d="m316 197.1c-3.8 0.8-3.6-0.9-5.8-2.1-2.4-1.3-8.9-3.5-5.6-7.7 2.4-3.2 7-1.8 9.7 0 3.5 2.2 6.5 6.4 9.6 9.1 3.2 2.8 6.8 5.6 9.6 8.9 5.5 6.3 9.8 16.8 11.3 24.9 0.9 4.9-2.7 7.9-3.6 12.6-0.9 5-1 10.1-3.7 14.6-10.6 2.3-5.7-16.2-5.7-21.4 0-5.3-0.6-10.8-3.3-15.3-3.5-5.8-4.7-2.5-10.3-3.2 2.9-11.3-4.4-18.7-12.1-25.6-0.3 0.8 0.3 0.8 0.5 1.5"/>
		<path id="&lt;Path&gt;" class="s7" d="m294 258c-0.6-0.4-1.1-0.4-1.6-0.8-3.7 1.7-11.4 5.7-15.1 4.9-0.6-7.6 4.2-13.1 11.9-9.9 5.7 2.4 11.2 8.3 15.8 11.9 5.5 4.2 10 9.5 15.3 14 6.7 5.5 3.9 14.8 0.3 22.4-4.2-5.7-4.1-27.7-14.5-19.5 2-6.7-1.5-11.4-6.4-15.7-2.8-2.4-4.9-3.7-8.3-5.2-1.5-0.7-9.4-3.6-7.4-1.1"/>
		<path id="&lt;Path&gt;" class="s7" d="m288.2 326.8c-0.6-0.7-1.9 1.6-3.7 3.1-2.6-2.2-3.7-6.8-1.4-9.8 2.2-3 5.8-2.3 9.3-2.3 7.5 0 13.4 1.2 20.4 2.7 1.1 4.5 1.3 8.4 0.6 12.9 0.3-3.6-2.4-10.5-5.8-11.9-3.7-1.6-9.3 0.6-9.9 4.3-4.7-9.3-10.2-1.8-14.7 2.5"/>
		<path id="&lt;Path&gt;" class="s7" d="m367.5 322c10.3-1.7 19.7-15.1 31.4-14.1-1.1 4.9-7.6 9.7-10.5 14.1 3 1.1 6.4-2.6 9.6-3.7 5.5-1.8 12-1.9 17.7-2.1 4.7-0.1 13.7 0.7 16.9 4.8 4.1 5.3-1.7 7.6-6 8.4-8 1.4-15.6 1.8-22.9 5.9-6.7 3.7-13.7 8.1-19.6 13-2.8 2.3-6.8 10.8-9.4 5.8-2.7-5.3 6.6-10 10.1-12.1 5.4-3.3 12.4-7.3 16.7-12-8.6-3.9-22.1 8.7-29.2 12.3 1-6.4 7.8-13.8 10.7-20.3-8.7-1-20.4 15.6-24.6 21.6-4.7 6.8-6.5 14.7-10.3 21.9-1.5-9 5.1-25.7 9.6-33.1 6-9.8 18.5-16.2 29.2-17.2"/>
		<path id="&lt;Path&gt;" class="s8" d="m529.2 417.9c0 4.9-4 8.9-8.9 8.9-5 0-9-4-9-8.9 0-5 4-9 9-9 4.9 0 8.9 4 8.9 9z"/>
		<path id="&lt;Path&gt;" class="s8" d="m683 407.6c0 3.6-3.2 6.4-7.1 6.4-3.9 0-7.1-2.8-7.1-6.4 0-3.5 3.2-6.4 7.1-6.4 3.9 0 7.1 2.9 7.1 6.4z"/>
	</g>
</svg>