<svg version="1.2" xmlns="http://www.w3.org/2000/svg" viewBox="0 0 160 122" width="160" height="122"><style>.a{fill:#909190}.b{fill:#05499b;stroke:#002733;stroke-width:2}.c{fill:#012860}.d{fill:#cecccc}.e{fill:#afacac}.f{fill:#01232d;stroke:#002733;stroke-width:2}.g{fill:#01171c}.h{fill:#cecccc;stroke:#002733;stroke-width:2}</style><path class="a" d="m62.7 103.5q0.2-0.2 0.4-0.1c-0.8 1-2.3 1.7-0.7 2.9 1.6 1.3 4.6 1.3 6.6 1.4 5.4 0.3 10.9 0.2 16.3 0.2 4.4 0 8.7-0.4 13-0.5 3.6 0 7.2 0.6 10.7-0.1 2-0.4 7.2-2.9 2.7-4-3.2-0.7-6.6-1-9.9-1.3-3-0.3-5.6 0.5-8.6 0.6-3.7 0.2-7.4 0.2-11.1 0.2-4 0-7.9 0-11.8-0.2-2.6-0.1-5.2-0.5-7.3 0.9 0 0.8 1.3 1.4 1.3 2.3"/><path class="b" d="m83.4 82.1c0 0-30.3 11.8-41.7-28.6 0 0-6.4-24.2 27.6-37.7 0 0 52.8-10.1 49.1 38 0 0-4.3 59.3-50.5 51.5 0 0-9.4-2.7-2-5 0 0 20.6-6.7 17.5-18.2z"/><path class="c" d="m87.2 16.8c0 0 35.5 16 22 52q-0.1 0.3-0.2 0.6c-13.9 36.4-33.2 33.7-39.4 33.9 0 0-1.2 1.1 0.5 1.4 0 0 28.4 6.2 41.6-27.7 0 0 18.2-41.8-8.8-56.3 0 0-14.8-6.4-15.7-3.9z"/><path class="d" d="m40.1 52.6c-2.5 2.2-4.1 8.4-2.3 11.5-3.1 1.2-5.4 6-5.6 9.1-0.1 1.7 0.2 3.1 1.2 4.5 1.1 1.7 0.7 2.6-1 1.1-0.4-1.1-1-2.2-1.5-3.3-0.5-1.2-0.5-2.1-0.5-3.5 0-1.3 0.5-2.8 0.1-4.1-0.6-1.7-1.9-1-2.8 0.2-3.7 5 0.4 11.7 3.9 15.5 1.3 1.4 4.8 4 6.6 2.4 2-1.8 0.3-3.7-1.8-4.1-0.6-1.8 1.4-0.8 2.2-0.6 1.6 0.4 2.1 0.2 3.2-1.1 1.5-1.7 2.3-3.8 2.9-5.9 0.8-2.6 0.7-5-0.2-7.6-0.3-1-1.2-1.8-1.6-2.7-0.5-1.4 0.8-2.3 1.6-3.5 1.1-2 1.2-4.2 0-6.2-0.4-0.8-1.5-2.3-2.5-2.2-0.9 0-1.2 1.1-2.3 1 0.1 0.5 0.1 0.8 0 1.3 0.5 0.1 1.1 0.4 1.3 0.9"/><path class="d" d="m31.5 70.9c0.8-2.9 2.2-6.4 5.1-7.6 0-1.1-0.6-2.2-0.7-3.2-0.2-1.2 0-2.3 0.3-3.4 0.5-1.9 1.7-3.4 3.2-5 1.2-1.3 2.4-4.7 0.3-5.9-2.3-1.2-3.8 2.2-4.5 3.8-1.6 3.5-3.4 7.4-3.2 11.5 0.1 2 1.1 3.4 0.3 5.1-0.4 0.9-2 3.7-0.8 4.3q0.1 0 0.1-0.1c-0.4-0.4-0.1-0.6-0.1-0.6"/><path class="d" d="m31.7 54.8c0 0 0.6-2.1 0.8-2.9 0.3-1 0.9-2.2 1.4-3.1 1.2-2.3 2.4-3 4.8-3.4 1.3-0.3 1.5-0.8 2-2 0.4-0.9 1.1-2.2 0.6-3.1-1.6-2.9-5.1 1-6 2.4-1.3 2-2.7 4.2-2.9 6.6-0.1 1.1 0.1 2.2-0.1 3.2-0.2 1-0.8 1.9-0.6 2.9q0.3 0 0.5 0c0.1-1 0.1-1.9 0.1-2.9-0.2 0.3-0.1 0.6-0.1 0.9 0.6-0.1 1.2-0.4 1.8-0.2"/><path class="d" d="m108.7 46.2q0.2-0.2 0.2-0.4c-2.2-0.4-3.2 2.6-2.9 4.2 0.2 1.8 1.7 3.8 3.5 4.4 0.1 1.2-0.5 2.8-0.6 4.1-0.1 1.5 0.1 2.7 0.6 4.2 0.8 2.6 2.5 5.4 5.4 6 1.1 0.2 2.8 0.5 3.8-0.2 1.3-1 0.7-2.3 0.5-3.7-0.2-2.7 1-5.5 2.2-7.8 1.2-2.3 2.9-3.4 4.7-5 1.1-1 0.8-1-0.1-1.9-0.7-0.9-1.5-1.7-2.3-2.5-1-1.1-1.4-1.4-1.4-3.1 0-1.3 0-2.5-0.3-3.8-0.5-2.6-1.1-4.8-2.6-7-0.7-1.1-1.5-2.5-2.9-2.3-1.9 0.2-2.9 2.1-2.2 3.8 0.3 0.8 1.3 1.6 1.7 2.3 0.5 0.8 0.9 1.8 1.3 2.8 0.6 1.5 1.3 3.7 1.2 5.3-1.5-0.1-1.3-4.9-2-6.1-1.2-1.7-4.3-2.7-6.1-1-0.9 0.9-1.1 2.2-0.9 3.5 0.2 1.5 0.6 1.6 1.9 2.4 2.1 1.5 4 3 5 5.6 0.3 0.9 1 2.7 0.1 3.4-1.2-2.1-1.3-4.5-3.1-6.3-0.7-0.8-1.4-1.3-2.5-1.6-1.5-0.4-2 0.4-3.2 0.7 0.1 0.4 0.6 1.7 0.8 2.5 0 0 0.1-0.1 0.2-0.1 0 0.2 0.1 0.2 0.2 0.3"/><path class="d" d="m128.8 51.8c-1.3-0.6-4.4 3.1-5.2 4.1-1.4 1.9-2.2 4.1-2.9 6.4-0.3 1-0.7 1.9-0.7 3-0.1 1.3 0.2 2.6 0 3.7-0.3 1.1-1 1.9-0.3 3.3 0.5 0.9 1.7 1.8 2.7 1.8 3.2 0 1.7-7.3 2.3-9.5 0.7-2.1 2.1-3.6 3.5-5.4 0.9-1.1 2.3-3.4 3.7-3.6-2.5 3.5-6.6 7.1-6.4 11.9 1-0.1 2-3.4 2.4-4.4 1-2.1 2.3-3.5 4.1-5 1.6-1.2 3.5-3 1.2-4.8-0.7-0.6-1.7-1-2.5-1.3-0.7-0.3-2.3-0.7-2.3-0.5"/><path class="e" d="m42.5 54.5q-0.1-0.2 0-0.4c3 1.3-1.9 7.4-2.8 8.7 5.7 3.2 2.4 11.1-1.6 14.1-0.9 0.7-2.8 1.5-2 3 0.3 0.6 2.2 1.3 2.9 1.3 2.4 0 3.6-2.8 4.4-4.6 1.6-4.1 2.3-8.5-0.2-12.3-0.8-1.3-1-1-0.3-2.3 0.6-1 1.4-1.8 1.7-2.9 0.6-2.1-0.2-4.1-1.3-5.7-0.3 0-0.4 0-0.7 0.1 0 0.2-0.1 0.8-0.1 0.9 0.6 0.4 0.7 1.3 0.8 2"/><path class="e" d="m38.5 47.3q0-0.3 0-0.5c1.5 2.2-1.6 5.7-2.8 7.4-0.9 1.3-0.9 1.6-0.6 3.1 0.2 1.2 0.2 2.3-0.1 3.6-0.2 1-1 2.5 0.4 2.7 1.3 0.2 1-1.5 0.9-2.5-0.1-1.2-0.7-2.5-0.4-3.8 0.2-1.2 0.9-1.8 1.6-2.9 0.9-1.4 1.8-3.1 2.3-4.6 0.3-0.7 0.1-4.7-1.3-2.8 0.5-0.1 0.5 0.2 0.9 0.3"/><path class="e" d="m39.8 40.1c0.3 1.9-1.4 2.7-2.5 3.9 2.3 3 5.6-3.2 2.9-3.7-0.4 0.5-0.5 1.1-0.5 1.7"/><path class="e" d="m35.9 82.8c-0.2-0.2-0.5-0.2-0.4-0.7 0.8 0.7 0.4 2.4-0.8 2.5-0.9 0-1.6-1.5-2.4-1.9 1.3 1 3.6 3.7 5.5 3 2.7-1.1-0.2-4-2-4 0 0.2-0.1 0.4 0 0.6 0.1 0 0.4 0.1 0.5 0.1 0 0.2 0.1 0.4 0.2 0.5"/><path class="e" d="m129.3 52.6c0.4 0.1 0.9 0.3 1.1 0.7-1.8 2.2-5.8 5.7-5.6 8.8 2.6-0.3 3.9-6.8 6.9-6.2 0 0.4-0.3 0.9-0.6 1.2 0.9 1.2 2.3-0.1 2.7-1.1 0.7-1.4-0.4-1.6-0.9-2.7-0.8-0.4-2.7-2.1-3.2-0.7 0.2 0.2 0.4 0.5 0.5 0.6"/><path class="e" d="m116.9 32.7c1.5-0.1 1.5 5.2 1.6 6.4 0.1 1.4 0.2 2.4 1 3.6 0.7 1.2 1.1 1.7 1.3 3.1 0.4 2.9-0.8 5.1-1.5 7.9-0.2 1.1-0.1 2.5 1.4 2.2 1.2-0.2 1.9-1.8 2.7-2.7 0.5-0.6 2.2-1.3 2.5-1.9 0.5-1-0.8-2.1-1.4-2.7-0.7-0.8-1.4-1.4-1.7-2.3-0.3-1.2 0.1-2.6-0.1-3.9-0.1-1.2-3.3-12.1-5.5-9.6 0.7 0.4 1.2 0.8 1.6 1.5"/><path class="e" d="m112.8 39.1c1.4-0.5 3.8 5.8 4.3 7.1 1.2 0.1 0.3-1.6 0.1-2.3-0.2-1 0-2.1-0.1-3.1-0.3-1.6-4.4-3.6-4.4-1.6 0.2-0.1 0.6 0 0.8-0.1q0 0.4-0.1 0.7"/><path class="e" d="m108.6 47.3c-0.4-0.5-0.6 0.5-0.7 1.1-0.1 1.3 0.6 2.4 1.7 3.2 0.7 0.5 1.3 0.5 1.6 1.3 0.3 0.6 0 1.9 0 2.5 0.1 3.6 0.6 8 4.6 9 1.2 0.4 2.3 0.8 2.6 2.2 0.3 1.6-0.7 2.5-2.2 2.2-2.4-0.3-4.4-2.3-5.4-4.2-1.3-2.4-1.6-4-1.3-6.7 0-0.8 0.6-2.4 0.3-3.1-0.3-0.6-1.5-0.8-2.1-1.4-1.6-1.5-2.1-3.3-1.1-5.2 0.2-0.5 1.3-2.2 2-1.7 0.9 0.6-1.3 2 0.7 2.6"/><path class="f" d="m65.5 65.6c0 0 5.4-14 13.4-1.4 0 0 4.5 10 1.7 13.1 0 0-10.3 7.8-15-0.9 0 0-1.9-5.1-0.1-10.8z"/><path class="g" d="m72.8 78.9c-2.9-1.6 1.4-12.7 4-13.6 2.7-1 3.7 6.1 3.5 7.7-0.2 2.6-2.1 4.2-4.2 5.2-1.2 0.6-2.2 1.2-3.6 0.7 0.6-0.2 1.3-0.5 2-0.6"/><path class="h" d="m53.3 35.8c-1.5 2.7-1.9 6.7 0.5 8.9 3.8 3.5 10.1 2.6 12.1-2.3 1.2-2.7 1.8-7.6-0.2-10.1-4-5.1-9.9-0.5-12.4 3.5z"/><path class="h" d="m86.7 26.1c-2.3-0.6-5.2-0.7-7.4 0 0.3-0.1 0.5-0.3 0.8-0.4-6.2-0.3-8.5 7.7-6.9 12.6 0.9 2.8 1.8 6.1 4.7 7.5 2.3 1.2 5.2 1.9 7.7 1.5 2.6-0.4 5.3-0.4 7.2-2.5 1.9-2 1.7-5.1 1.7-7.6 0-5.4-2.4-9.9-7.8-11.1z"/><path  d="m80.6 41.6c0 1.5-1.1 2.6-2.5 2.6-1.4 0-2.6-1.1-2.6-2.6 0-1.4 1.2-2.5 2.6-2.5 1.4 0 2.5 1.1 2.5 2.5z"/><path  d="m57.2 42.7c0 1-0.7 1.8-1.6 1.8-0.9 0-1.6-0.8-1.6-1.8 0-0.9 0.7-1.7 1.6-1.7 0.9 0 1.6 0.8 1.6 1.7z"/></svg>