<svg version="1.2" xmlns="http://www.w3.org/2000/svg" viewBox="0 0 160 122" width="160" height="122"><style>.a{fill:#909190}.b{fill:#035372;stroke:#002733;stroke-width:2}.c{fill:#cecccc}.d{fill:#afacac}.e{fill:#01191e;stroke:#002733;stroke-width:2}.f{fill:#cecccc;stroke:#002733;stroke-width:2}.g{fill:#034b5b}</style><path class="a" d="m62.5 109.4c-3.2-1.3-4 1.3-1 2.8 2.8 1.3 5.6 2 8.6 2.4 6.1 0.9 12.4 1.8 18.6 1.6 6.7-0.3 13.4-1.7 20.1-2.4 5.8-0.7 12-1.9 17.5-3.9 1.2-0.4 2.8-0.4 2.6-2-4.7-0.7-9.5-1.1-14.2-1.6-4.5-0.5-8 0.1-12.5 0.5-10 1-20.3 2.3-30.6 1.3-2.6-0.2-5.5-0.7-8-0.2-2.5 0.4-3 1.5-4.9 3.1"/><path class="b" d="m78.2 80.2c0 0-44.2-1.7-31-40.9 0 0 13.2-39.7 52.8-30.5 0 0 50.5 16.7 31 66.2 0 0-25.3 48.3-67.2 34.5 0 0-8.6-6.9 1.2-6.9 0 0 36.7-5.7 29.8-23 0 0-13.8 2.9-16.6 0.6z"/><path class="c" d="m32.1 64.1c-0.4-0.8 0.6-2 1.3-1.1-1.1-0.2-2.2-1.7-1.6-2.8 0.7-1.1 2.7-1.1 3.7-0.7 2.8 1.1 5.5 3.8 6.2 6.7 1.1 4 0.3 7.4-2.2 10.6-1.1 1.3-2.6 3.1-4.2 3.6-1.2 0.3-2.7-0.5-2-1.9 0.3-0.6 1.3-0.9 1.7-1.3 0.8-0.5 1.4-1.2 2-1.9 1.2-1.2 1.8-2.4 1.8-4.2-0.1-2.2-1.7-6-4-6.7-2-0.7-0.2 1.4 0.6 2 1.2 0.9 2.2 1.5 2.4 3 0.5 2.8-1.3 4.2-3 6-1.2 1.2-2.1 3.8-3.8 3.1-2.8-1 0.5-3.3-1.4-4.3-0.1 0.3-0.4 0.6-0.4 0.9-0.3-0.4-0.3-0.7-0.3-1.1 2 0 1.5-3.6 0.9-4.9-0.3-0.6-1.6-1.6-1.4-2.1 0.1-0.3 2-1.1 2.3-1.3 0.5 0.9 1.5 1.2 1.5-0.1 0-0.7-1.1-1.3-0.3-1.7 0-0.1 0-0.4 0.1-0.5 0.2-0.2 0.2 0 0.4-0.3 0.3 0 0.6 0.2 0.8 0.6"/><path class="c" d="m29.9 64.6c0-0.7 0.8-1.2 0.8-0.2 0 1.3-0.8 0.6-1.5 1-1.3 0.6-1.5 1.8-0.9 3.2 0.6 1.1 1.6 1.5 1.3 3.2-0.2 1.5-1.5 2.7-1.3 4.3 0.9 0.6 1.7 2.5 0.3 3.3-0.8-0.4-0.9-2.4-2.1-1.9 0.4-1.4 0.7-3 0.1-4.4-0.4 0-0.7-0.4-1-0.6 0.9-1.9 1.3-3.2 1.3-5.6 0-1.1-0.4-2 0.8-2.4 0.1 0 1 0.2 1.3 0.2 0.5-0.1 0.6-0.6 1.1-0.6 0 0.2 0.1 0.3 0.2 0.4"/><path class="c" d="m27.1 63.8c1.3 1.2 0.8-2.3 0.6-2.8-0.4-1.2-0.9-1.9-2.3-2-2.7-0.3-4.8 2.6-5.7 4.8-1 2.5-1.1 5.6-0.9 8.4 0.3 2.6 3 5.5 5.1 2.6 0.9-1.4 1.2-3.5 1.7-5.1 0.6-1.9 0.4-3.8 0.9-5.6 1.2 0.2 1.2-1.1 2.3-1"/><path class="c" d="m18.8 61.2c-0.1-0.3 0-0.5 0.3-0.4"/><path class="c" d="m21.1 60.1c-1.1 1.8-1.5 5.4-3.1 6.4-1.7 1.1-4.4 0.7-6.4 0.7-2 0-5.4 0.5-6.6-1.2-1.8-2.3 0-5.3 2.2-6.3 2.3-1.1 4.7-1.8 7.4-1.3 1.9 0.4 4.3 1.9 6.2 1.7-0.1 0.2-0.2 0.6-0.3 0.8 0.5 0.3 1 0.5 1.6 0.7"/><path class="c" d="m18.1 67.8c-0.5-0.2-2.5 0.1-3 0.3-0.7 0.4-1.3 1.7-1.5 2.3-0.4 2.1 3.2 4.2 5 3.4-0.2-0.9-0.6-1.6-0.7-2.6-0.2-1.1 0.1-2.1 0.1-3.1-0.3-0.1-0.4-0.2-0.6-0.3 0-0.2 0-0.6 0-0.9"/><path class="c" d="m12.7 68.9c-2.6 1.3-2.2 5.7-0.9 7.7 1.4 2.3 4.4 2.5 6.9 2.5 2.5 0 4.8-0.2 6.7-1.9 0.7-0.6 2.1-2.4 0.8-3.2-1.1-0.8-1.5 1.1-2.2 1.7-1 0.8-3.1 1.6-4.2 0.7-0.4-0.4-0.5-1.5-1-1.7-0.5-0.2-1.2 0.4-1.9 0.3-1.1-0.1-2.5-1.1-3.2-1.8-1.2-1.2-1.2-2.2-1.4-3.9q-0.1 0-0.1 0.1 0 0.2 0 0c0.2-0.6 1-0.8 1.3-0.1"/><path class="c" d="m22 83.1c1.6-0.5 2.8-0.8 4-2.2 0.9-0.8 2.4-4.2-0.1-3.8-0.8 0.1-1.4 1.1-2 1.5-0.7 0.5-1.5 0.8-2.3 1.1-1.8 0.7-3 0.5-4.8 0.4-0.5 1.1 1.1 2.6 2 3 1.2 0.6 3.2 0.5 4.2-0.3 0.1 0.1 0.1 0.2 0.2 0.3 0.4-0.1 0.8-0.4 1.1-0.8"/><path class="c" d="m23.3 83.8c1-0.4 1.8-1.3 2.5-2.4 0.5-0.7 1-2.9 2.1-2.3 1.1 0.7 0.6 3.2-0.2 3.9-0.9 0.8-2.6 1.1-3.7 0.7q0 0.1 0 0.2c0.4 0 0.4-0.3 0.7-0.5"/><path class="d" d="m18.4 61.2c-0.5 2.6-3.6 3.6-6.1 3.7-1.3 0.1-2.9-0.8-4-0.3-1.5 0.6-1.5 1.8-0.2 2.2 1.9 0.6 5.2 0.6 7.2 0.3 1.8-0.4 4-2.3 4-4.3 0-0.4 0-0.8-0.2-1.2-0.4 0.1-0.5 0-0.8 0.1 0.2-0.1 0.5-0.2 0.8-0.2"/><path class="d" d="m27.3 62.7c-2.3-3.5-4.6 4.1-4.8 5.3-0.3 1.6-0.3 3.4-0.7 5-0.3 1.1-0.9 1.1 0.2 1.7 0.7 0.3 1.3 0.2 2 0 1-1.8 1-4.2 1.4-6.2 0.3-1.2 0.6-4.3 2-4.6 0.1-0.3 0.1-0.8 0-1-0.2-0.1-0.3-0.2-0.5-0.2 0.3 0.2 0.6 0.2 0.9 0.3"/><path class="d" d="m34.1 66.5c0.6 1.2 1.2 3.7 0.3 4.8-0.8 1.3-2 0.9-3 0.9-0.7-0.1-0.6-0.8-1.1 0.2-0.2 0.5 0.1 1.4 0 1.9-0.2 1.1-1.1 1.6-0.8 2.8 0.8 4.7 7.3-3.4 7.9-5.2 0.5-1.3 0.3-6.8-2.3-5.6-0.1-2 1.8-0.1 2.2 0.4 0.7 0.9 1.6 2.1 1.8 3.3 0.4 3.1-0.8 4.2-3 6-1.8 1.4-2.6 4.9 0.8 3.2 1.2-0.7 2-1.8 2.9-2.9 1.4-1.8 0.2-1.3-0.2-3-0.6-2.6 1.6-4.7-0.6-7.2-1.5-1.7-5.1-2.2-4.7 1.1-0.4-0.1-0.3 0.1-0.3 0.2"/><path class="d" d="m25.8 78.2c0.2-0.1 0.2-0.2 0.4-0.1 1.3 2.2-4.7 3.6-5.9 4.5 1.1 1 3.7-0.1 4.7-0.8 0.8-0.6 2.6-2.6 1.2-3.2 0 0.3 0.2 0.6 0.4 1"/><path class="d" d="m27.2 80.7c0 0.7-1.1 1.5-0.8 2 0.4 0.9 1.6 0.2 1.9-0.4 1.1-2-1.8-2.4-1.1-0.8"/><path class="d" d="m11 75.4c2.2 0.1 3.8 1.4 5.9 1.7 0.7 0 2.9-0.2 3.3 0.3 0.7 0.9-0.7 1.6-1.4 1.8-1.8 0.4-3.9 0-5.4-0.9-0.6-0.3-1.7-1-2-1.5-0.6-1.1 0.2-1.1 0.6-2"/><path class="d" d="m14.6 72.6c-1.1 0-1.5-1.2-1.4-2.1 1.2-0.3 1.4 1 2.2 1.6 0.8 0.6 2.7 0.5 2.7 1.7-2.5 0.9-3.2-1.8-5-1.9"/><path class="c" d="m138.6 65.4c2-2.1 3.1-5.5 4-8.2 0.4-1.3 1.9-7.5 4.1-3.9 1.2 2 0.2 5.1-0.4 7.1-1 3.2-2.4 5.6-5 7.9-0.8 0.8-1.8 1.7-2.6 2.7-0.5 0.6-1.3 2 0.1 1.2 0.8-0.5 1.9-2.2 2.7-2.9 2.4-2.2 3.6-5.1 4.9-8 1.3 1.3-0.2 5.4-0.7 7 2.3 0.1 5.2 1 5.1 3.8 2.6-1.8-2-3-2.6-4.1-0.7-1.2 0.3-3 1.4-3.4 1.5-0.6 3.3 0.7 4.3 1.6 2.7 2.4 3.4 6.3 2.3 9.7-0.5 1.5-1.1 2.7-2.4 3.7-0.6 0.4-1 0.5-1.7 0.6-0.5 0.1-1.3-0.2-1.7-0.1-0.2 0.1-0.4-0.1-0.5-0.2-0.4 1.3 0.9 2.9 0.4 4.3-0.4 1.2-1.8 1.8-3 1.9-0.6 0.1-1.4-0.3-1.9-0.2-1.1 0.2-0.5 0.1-0.8 1.1-0.5 1.5-0.8 1.7-2.4 2.1-2.2 0.4-5.1 1.9-7.1 0.4-2-1.6-2.1-5.2-2.2-7.6-0.1-1.8-0.5-3.7 0.3-5.3 0.6-1.1 1.6-1.8 2.3-2.8 0.8-1.4 0.1-0.8-0.4-2.2-0.5-1.2 0.4-3.4 1.1-4.4 0.7-0.9 2.1-1.5 2.3-2.7-0.3 0.2-0.4 0.3-0.6 0.5q0.3 0.1 0.6-0.1"/><path class="d" d="m137.8 76c-0.7 0.9-0.8 3.9-0.9 5.2 0 1.1 0.6 2.7 1.2 3.7 1.4 2.4 4.1 1.5 5.7-0.1 1.1-1.3 1.1-0.7 2.7-0.4 1.2 0.2 1.3-0.3 2.1-1.1 0.4-0.4 0.1-0.9 0.8-0.9 0.6 0.1 0.9 0.9 0.8 1.4-0.1 1-1.4 1.5-2.2 1.7-1.1 0.2-2.6-0.5-3.4 0.2-0.3 0.3-0.5 1.2-0.8 1.5-0.4 0.6-1.2 0.8-1.8 1.2-1.6 0.9-5.8 1.5-7.4 0.1-1.8-1.7-1.1-5.2-0.9-7.4 0.2-2.4 0.4-4.7 1.9-6.6 1.7-2.4-0.6-2.1-0.4-4.3 0.1-1.2 2.7-3.8 3.6-4.5 0.4 1.6-1.4 2.8-1.1 4.5 0.4 0.1 0.9 0.1 1.3-0.1-0.2 0.7-0.7 1.1-0.8 1.8-0.1 1.2 0.6 0.6 0.7 1.3 0.3 1.3-1.4 2.4-1.3 3.7-1.5 0.6 0.3 1.9 0.6 2.5 0.3 0.6 0.1 1.3 0.7 1.7"/><path class="d" d="m149 68.2c-0.2 0-0.4-0.4-0.4-1 2-0.5 4-0.4 4.6 2 0.6 2.3-0.5 4-2.5 4.7-0.8-1.7 1.4-2 0.7-3.6-0.4-1.1-1.9-1.4-2.8-2-0.1 0.4-0.3 0.7-0.3 1"/><path class="e" d="m75.8 64.1c0.2-0.6 5.8-1.2 6.9-1.4 2.6-0.5 4.9-0.6 7.5-1.8 2.6-1.2 5.3-3.7 7.2-5.9 2.4-2.5 5-4.8 6.9-7.7 1-1.6 2.2-3.2 3-4.9-0.5-0.7-1.4-0.8-2-1.1 1.7 0.5 4 1.6 5.5 2.8-0.8-0.2-2.3-0.9-3.1-0.7-1.1 0.2-1.4 1.3-1.9 2.3-1.1 2.5-2.3 4.6-3.8 6.9-2.7 4.2-4.3 9.2-7.6 12.9-2.4 2.5-7.6 6.6-10.8 3.1-1.3-1.5-0.8-4.8-2.9-5.7-1.8-0.7-3.5 1.5-5.3 1"/><path class="f" d="m78.2 29.5c2-3.1 1.9-10.5-1.9-12.3-4.5-2.2-9.5 2-11.9 5.5-3.1 4.3-4 12.4 2.1 14.9 5.1 2.1 9.9-1.4 11.7-6 0.6-1.7 1.1-4 1.1-5.5q0 0.6 0 1.2"/><path class="f" d="m92.8 33.9c1.8-2.1 2.6-4.9 0.5-7-1.7-1.7-5.5-4.5-7.8-2.2-1.8 1.8-1 7.2-0.4 9.4 1.5 5 5.2 2.9 7.7-0.2z"/><path  d="m67.5 31.7c0 0.8-0.7 1.5-1.6 1.5-0.9 0-1.5-0.7-1.5-1.5 0-0.9 0.6-1.6 1.5-1.6 0.9 0 1.6 0.7 1.6 1.6z"/><path  d="m89 33.6c0 0.5-0.5 0.9-1.1 0.9-0.5 0-1-0.4-1-0.9 0-0.5 0.5-0.9 1-0.9 0.6 0 1.1 0.4 1.1 0.9z"/><path class="g" d="m106.6 14.8c0 0 0-1.3 0.8-1.1 0.8 0.3 31.1 15.4 26.2 46.6 0 0-3.4 33-43.8 48.8 0 0-10.4 3.7-24.7 0 0 0 47.7 7.1 62.5-54.3 0 0 4.4-24.4-22.5-37.2 0 0-9.1-6.5-6.3-7.5 0 0 8.3 2.3 7.8 4.7z"/></svg>